<svg version="1.1" xmlns="http://www.w3.org/2000/svg" xmlns:xlink="http://www.w3.org/1999/xlink">
<defs>
<symbol id="logo" viewBox="0 0 41 32">
<path d="M38.196 0.196c-3.861 0.221-11.532 1.019-16.268 3.924-0.328 0.2-0.513 0.557-0.513 0.929v25.676c0 0.815 0.89 1.331 1.64 0.952 4.872-2.457 11.921-3.128 15.405-3.31 1.19-0.062 2.115-1.018 2.115-2.164v-23.839c0-1.25-1.081-2.24-2.379-2.168zM18.649 4.121c-4.736-2.906-12.409-3.704-16.268-3.924-1.3-0.073-2.38 0.917-2.38 2.167v23.84c0 1.146 0.925 2.101 2.115 2.164 3.486 0.183 10.537 0.854 15.412 3.314 0.747 0.377 1.634-0.137 1.634-0.951v-25.694c0-0.002 0-0.005 0-0.007 0-0.383-0.203-0.72-0.507-0.907l-0.005-0.003z"></path>
</symbol>
<symbol id="button-vector" viewBox="0 0 16 32">
<path d="M14.020 17.063l-8.501 8.498c-0.271 0.272-0.645 0.441-1.060 0.441s-0.789-0.169-1.059-0.441l-1.412-1.412c-0.272-0.27-0.44-0.645-0.44-1.059s0.168-0.788 0.44-1.059l6.025-6.027-6.025-6.025c-0.272-0.271-0.44-0.645-0.44-1.059s0.168-0.788 0.44-1.059l0-0 1.406-1.426c0.271-0.272 0.645-0.441 1.060-0.441s0.789 0.169 1.059 0.441l8.5 8.5c0.594 0.587 0.594 1.538 0.007 2.126z"></path>
</symbol>
</defs>
</svg>
