<svg version="1.1" xmlns="http://www.w3.org/2000/svg" xmlns:xlink="http://www.w3.org/1999/xlink">
<defs>
<symbol id="logo" viewBox="0 0 41 32">
<path d="M38.196 0.196c-3.861 0.221-11.532 1.019-16.268 3.924-0.328 0.2-0.513 0.557-0.513 0.929v25.676c0 0.815 0.89 1.331 1.64 0.952 4.872-2.457 11.921-3.128 15.405-3.31 1.19-0.062 2.115-1.018 2.115-2.164v-23.839c0-1.25-1.081-2.24-2.379-2.168zM18.649 4.121c-4.736-2.906-12.409-3.704-16.268-3.924-1.3-0.073-2.38 0.917-2.38 2.167v23.84c0 1.146 0.925 2.101 2.115 2.164 3.486 0.183 10.537 0.854 15.412 3.314 0.747 0.377 1.634-0.137 1.634-0.951v-25.694c0-0.002 0-0.005 0-0.007 0-0.383-0.203-0.72-0.507-0.907l-0.005-0.003z"></path>
</symbol>
<symbol id="button-vector" viewBox="0 0 16 32">
<path d="M14.020 17.063l-8.501 8.498c-0.271 0.272-0.645 0.441-1.060 0.441s-0.789-0.169-1.059-0.441l-1.412-1.412c-0.272-0.27-0.44-0.645-0.44-1.059s0.168-0.788 0.44-1.059l6.025-6.027-6.025-6.025c-0.272-0.271-0.44-0.645-0.44-1.059s0.168-0.788 0.44-1.059l0-0 1.406-1.426c0.271-0.272 0.645-0.441 1.060-0.441s0.789 0.169 1.059 0.441l8.5 8.5c0.594 0.587 0.594 1.538 0.007 2.126z"></path>
</symbol>

<symbol id="university" viewBox="0 0 32 32">
<path d="M31 8v1c0 0.133-0.053 0.26-0.146 0.354s-0.221 0.146-0.354 0.146h-1.5v0.75c0 0.414-0.336 0.75-0.75 0.75h-24.5c-0.414 0-0.75-0.336-0.75-0.75v-0.75h-1.5c-0.133 0-0.26-0.053-0.354-0.146s-0.146-0.221-0.146-0.354v-1c0-0.099 0.029-0.196 0.084-0.278s0.133-0.146 0.224-0.184l14.5-5.5c0.122-0.051 0.26-0.051 0.382 0l14.5 5.5c0.091 0.038 0.169 0.102 0.224 0.184s0.084 0.179 0.084 0.278v0zM29.5 27h-27c-0.828 0-1.5 0.672-1.5 1.5v1c0 0.133 0.053 0.26 0.146 0.354s0.221 0.146 0.354 0.146h29c0.133 0 0.26-0.053 0.354-0.146s0.146-0.221 0.146-0.354v-1c0-0.828-0.672-1.5-1.5-1.5zM6 12v12h-2.25c-0.414 0-0.75 0.336-0.75 0.75v1.25h26v-1.25c0-0.414-0.336-0.75-0.75-0.75h-2.25v-12h-4v12h-4v-12h-4v12h-4v-12h-4z"></path>
</symbol>

<symbol id="pencil" viewBox="0 0 32 32">
<path d="M31.119 8.881l-2.881 2.881c-0.294 0.294-0.769 0.294-1.063 0l-6.938-6.937c-0.294-0.294-0.294-0.769 0-1.063l2.881-2.881c1.169-1.169 3.069-1.169 4.244 0l3.756 3.756c1.175 1.169 1.175 3.069 0 4.244zM17.762 6.237l-16.413 16.412-1.325 7.594c-0.181 1.025 0.713 1.913 1.738 1.738l7.594-1.331 16.412-16.412c0.294-0.294 0.294-0.769 0-1.063l-6.938-6.937c-0.3-0.294-0.775-0.294-1.069 0zM7.756 21.244c-0.344-0.344-0.344-0.894 0-1.238l9.625-9.625c0.344-0.344 0.894-0.344 1.238 0s0.344 0.894 0 1.238l-9.625 9.625c-0.344 0.344-0.894 0.344-1.237 0zM5.5 26.5h3v2.269l-4.031 0.706-1.944-1.944 0.706-4.031h2.269v3z"></path>
</symbol>

<symbol id="book" viewBox="0 0 32 32">
<path d="M22 6c0-3.314-2.686-6-6-6s-6 2.686-6 6c0 3.314 2.686 6 6 6s6-2.686 6-6zM14.599 15.069c-3.708-2.27-9.714-2.894-12.737-3.066-1.016-0.057-1.863 0.716-1.863 1.693v13.925c0 0.896 0.724 1.643 1.656 1.691 2.729 0.143 8.249 0.667 12.065 2.589 0.586 0.295 1.28-0.107 1.28-0.742v-15.374c-0.001-0.292-0.145-0.559-0.401-0.716zM30.137 12.003c-3.022 0.171-9.029 0.796-12.736 3.066-0.256 0.157-0.401 0.435-0.401 0.727v15.362c0 0.637 0.696 1.039 1.284 0.744 3.815-1.92 9.333-2.444 12.061-2.588 0.931-0.049 1.656-0.796 1.656-1.691v-13.926c-0.001-0.977-0.848-1.751-1.863-1.693z"></path>
</symbol>


</defs>
</svg>
